<svg width="25" height="26" viewBox="0 0 25 26" fill="none" xmlns="http://www.w3.org/2000/svg">
<g clip-path="url(#clip0)">
<path d="M20.2645 19.9968L19.6145 20.4304L21.1449 22.7261H3.85469L5.67773 19.9917H15.6023V19.2104H5.46875C5.40446 19.2104 5.34115 19.2263 5.28446 19.2566C5.22777 19.2869 5.17943 19.3308 5.14375 19.3843L2.8 22.8999C2.75732 22.9642 2.7345 23.0396 2.73438 23.1167V24.2886C2.73438 24.4958 2.81668 24.6945 2.9632 24.841C3.10971 24.9875 3.30842 25.0698 3.51562 25.0698H21.4844C21.6916 25.0698 21.8903 24.9875 22.0368 24.841C22.1833 24.6945 22.2656 24.4958 22.2656 24.2886V23.1167C22.2655 23.0396 22.2427 22.9642 22.2 22.8999L20.2645 19.9968ZM3.51562 24.2886V23.5073H21.4844V24.2886H3.51562Z" fill="white"/>
<path d="M20.3125 1.63232H4.6875C4.37698 1.63325 4.07945 1.75701 3.85988 1.97658C3.64032 2.19615 3.51655 2.49368 3.51562 2.8042V12.9604C3.51655 13.271 3.64032 13.5685 3.85988 13.7881C4.07945 14.0076 4.37698 14.1314 4.6875 14.1323H10.1562V15.6948H8.59375C8.49015 15.6948 8.39079 15.736 8.31754 15.8092C8.24428 15.8825 8.20312 15.9818 8.20312 16.0854V17.6479C8.20312 17.7515 8.24428 17.8509 8.31754 17.9242C8.39079 17.9974 8.49015 18.0386 8.59375 18.0386H16.4062C16.5099 18.0386 16.6092 17.9974 16.6825 17.9242C16.7557 17.8509 16.7969 17.7515 16.7969 17.6479V16.0854C16.7969 15.9818 16.7557 15.8825 16.6825 15.8092C16.6092 15.736 16.5099 15.6948 16.4062 15.6948H14.8438V14.1323H20.3125C20.623 14.1314 20.9205 14.0076 21.1401 13.7881C21.3597 13.5685 21.4834 13.271 21.4844 12.9604V2.8042C21.4834 2.49368 21.3597 2.19615 21.1401 1.97658C20.9205 1.75701 20.623 1.63325 20.3125 1.63232ZM16.0156 16.4761V17.2573H8.98438V16.4761H16.0156ZM10.9375 15.6948V14.1323H14.0625V15.6948H10.9375ZM20.7031 12.9604C20.7031 13.064 20.662 13.1634 20.5887 13.2367C20.5155 13.3099 20.4161 13.3511 20.3125 13.3511H4.6875C4.5839 13.3511 4.48454 13.3099 4.41129 13.2367C4.33803 13.1634 4.29688 13.064 4.29688 12.9604V11.7886H20.7031V12.9604ZM20.7031 11.0073H4.29688V2.8042C4.29688 2.7006 4.33803 2.60124 4.41129 2.52799C4.48454 2.45473 4.5839 2.41357 4.6875 2.41357H20.3125C20.4161 2.41357 20.5155 2.45473 20.5887 2.52799C20.662 2.60124 20.7031 2.7006 20.7031 2.8042V11.0073Z" fill="white"/>
<path d="M18.3594 12.1792H19.1406V12.9604H18.3594V12.1792Z" fill="white"/>
<path d="M8.98438 10.2261H10.5469C10.6505 10.2261 10.7498 10.1849 10.8231 10.1117C10.8963 10.0384 10.9375 9.93905 10.9375 9.83545V9.44482H14.0625V9.83545C14.0625 9.93905 14.1037 10.0384 14.1769 10.1117C14.2502 10.1849 14.3495 10.2261 14.4531 10.2261H16.0156C16.1192 10.2261 16.2186 10.1849 16.2918 10.1117C16.3651 10.0384 16.4062 9.93905 16.4062 9.83545V8.27295C16.4062 8.16935 16.3651 8.06999 16.2918 7.99674C16.2186 7.92348 16.1192 7.88232 16.0156 7.88232H15.625V5.53857H16.0156C16.1192 5.53857 16.2186 5.49742 16.2918 5.42416C16.3651 5.35091 16.4062 5.25155 16.4062 5.14795V3.58545C16.4062 3.48185 16.3651 3.38249 16.2918 3.30924C16.2186 3.23598 16.1192 3.19482 16.0156 3.19482H14.4531C14.3495 3.19482 14.2502 3.23598 14.1769 3.30924C14.1037 3.38249 14.0625 3.48185 14.0625 3.58545V3.97607H10.9375V3.58545C10.9375 3.48185 10.8963 3.38249 10.8231 3.30924C10.7498 3.23598 10.6505 3.19482 10.5469 3.19482H8.98438C8.88077 3.19482 8.78142 3.23598 8.70816 3.30924C8.6349 3.38249 8.59375 3.48185 8.59375 3.58545V5.14795C8.59375 5.25155 8.6349 5.35091 8.70816 5.42416C8.78142 5.49742 8.88077 5.53857 8.98438 5.53857H9.375V7.88232H8.98438C8.88077 7.88232 8.78142 7.92348 8.70816 7.99674C8.6349 8.06999 8.59375 8.16935 8.59375 8.27295V9.83545C8.59375 9.93905 8.6349 10.0384 8.70816 10.1117C8.78142 10.1849 8.88077 10.2261 8.98438 10.2261ZM15.625 9.44482H14.8438V8.66357H15.625V9.44482ZM14.8438 3.97607H15.625V4.75732H14.8438V3.97607ZM9.375 3.97607H10.1562V4.75732H9.375V3.97607ZM10.1562 5.53857H10.5469C10.6505 5.53857 10.7498 5.49742 10.8231 5.42416C10.8963 5.35091 10.9375 5.25155 10.9375 5.14795V4.75732H14.0625V5.14795C14.0625 5.25155 14.1037 5.35091 14.1769 5.42416C14.2502 5.49742 14.3495 5.53857 14.4531 5.53857H14.8438V7.88232H14.4531C14.3495 7.88232 14.2502 7.92348 14.1769 7.99674C14.1037 8.06999 14.0625 8.16935 14.0625 8.27295V8.66357H10.9375V8.27295C10.9375 8.16935 10.8963 8.06999 10.8231 7.99674C10.7498 7.92348 10.6505 7.88232 10.5469 7.88232H10.1562V5.53857ZM9.375 8.66357H10.1562V9.44482H9.375V8.66357Z" fill="white"/>
<path d="M8.98438 21.1636H14.4531V21.9448H8.98438V21.1636Z" fill="white"/>
<path d="M23.3867 15.2417L22.2813 14.1362C22.2449 14.0999 22.2016 14.0711 22.154 14.0517C22.1064 14.0322 22.0553 14.0225 22.0039 14.023C21.9531 14.0225 21.9026 14.0322 21.8556 14.0517C21.8086 14.0712 21.7661 14.0999 21.7305 14.1362L16.4805 19.3862C16.4377 19.4289 16.4055 19.4811 16.3867 19.5386L16.1094 20.3667C16.0871 20.4354 16.084 20.5088 16.1005 20.579C16.1171 20.6493 16.1526 20.7137 16.2031 20.7652L15.6523 21.3198L16.2031 21.8706L16.7578 21.3198C16.7936 21.3559 16.8363 21.3844 16.8832 21.4039C16.9301 21.4233 16.9804 21.4332 17.0312 21.4331C17.0736 21.4327 17.1157 21.4261 17.1562 21.4136L17.9844 21.1362C18.0418 21.1174 18.094 21.0853 18.1367 21.0425L23.3867 15.7925C23.4595 15.7193 23.5003 15.6203 23.5003 15.5171C23.5003 15.4139 23.4595 15.3149 23.3867 15.2417ZM17.6523 20.4253L17.1406 20.5933L16.9258 20.3823L17.0977 19.8706L20.8984 16.0698L21.4531 16.6206L17.6523 20.4253ZM22.0039 16.0698L21.4531 15.5191L22.0039 14.9644L22.5586 15.5191L22.0039 16.0698Z" fill="white"/>
</g>
<defs>
<clipPath id="clip0">
<rect width="25" height="25" fill="white" transform="translate(0 0.851074)"/>
</clipPath>
</defs>
</svg>
