<svg width="25" height="25" viewBox="0 0 25 25" fill="none" xmlns="http://www.w3.org/2000/svg">
<path d="M2.92969 15.805L1.06509 15.3937C0.518604 16.4962 0 17.7348 0 19.1616C0 20.5612 0.497607 21.7847 1.06509 22.9295L7.37305 21.538V24.2822L9.57031 23.1836L11.7676 24.2822V21.5395L18.0263 22.9303C18.5686 21.8363 19.0918 20.5945 19.0918 19.1616C19.0918 18.9146 19.0735 18.6688 19.0428 18.4292H25V0.851074H2.92969V15.805ZM1.90088 21.2451C1.71035 20.7413 1.46484 19.9409 1.46484 19.1616C1.46484 18.3822 1.7104 17.5817 1.90088 17.0781L7.37305 18.2853V20.038L1.90088 21.2451ZM10.3027 21.9121L9.57031 21.5458L8.83789 21.9121V18.4291H10.3027V21.9121ZM17.1913 21.2442L11.7676 20.0389V18.2843L17.1913 17.079C17.3817 17.5829 17.627 18.3828 17.627 19.1616C17.627 19.9405 17.3817 20.7405 17.1913 21.2442ZM23.5352 2.31592V16.9644H18.7038C18.4637 16.2298 18.2701 15.883 18.0263 15.3929L10.9548 16.9644H8.18535L4.39453 16.1281V2.31592H23.5352Z" fill="white"/>
<path d="M8.83789 3.78076H19.0918V5.24561H8.83789V3.78076Z" fill="white"/>
<path d="M5.85938 9.64014H22.0703V11.105H5.85938V9.64014Z" fill="white"/>
<path d="M8.83789 12.5698H19.0918V14.0347H8.83789V12.5698Z" fill="white"/>
<path d="M10.3027 6.71045H11.7676V8.17529H10.3027V6.71045Z" fill="white"/>
<path d="M13.2324 6.71045H14.6973V8.17529H13.2324V6.71045Z" fill="white"/>
<path d="M16.1621 6.71045H17.627V8.17529H16.1621V6.71045Z" fill="white"/>
</svg>
