<svg width="25" height="26" viewBox="0 0 25 26" fill="none" xmlns="http://www.w3.org/2000/svg">
<g clip-path="url(#clip0)">
<path d="M22.5 4.60095H11.25V5.43428H22.5V4.60095Z" fill="white"/>
<path d="M18.3333 6.26758H11.25V7.10091H18.3333V6.26758Z" fill="white"/>
<path d="M18.3333 7.93433H11.25V8.76766H18.3333V7.93433Z" fill="white"/>
<path d="M22.5 2.93433H14.5833V3.76766H22.5V2.93433Z" fill="white"/>
<path d="M13.75 2.93433H12.9167V3.76766H13.75V2.93433Z" fill="white"/>
<path d="M12.9166 17.5176H12.0833V18.3509H12.9166V17.5176Z" fill="white"/>
<path d="M6.96124 3.64556L6.37207 3.0564L5.53874 3.88973C5.37608 4.05244 5.37608 4.31619 5.53874 4.4789L6.37207 5.31223L6.96124 4.72306L6.42249 4.18431L6.96124 3.64556Z" fill="white"/>
<path d="M10.2946 3.88973L9.46124 3.0564L8.87207 3.64556L9.41082 4.18431L8.87207 4.72306L9.46124 5.31223L10.2946 4.4789C10.4572 4.31619 10.4572 4.05244 10.2946 3.88973Z" fill="white"/>
<path d="M7.93836 2.80205L7.10425 5.302L7.89435 5.56562L8.72846 3.06566L7.93836 2.80205Z" fill="white"/>
<path d="M21.6667 13.7676V10.4343H20.8334V13.7676H20V9.60095H19.1667V13.7676H18.3334V11.6843H17.5V13.7676H16.6667V11.2676H15.8334V13.7676H15V12.101H14.1667V13.7676H13.3334V14.601H22.5V13.7676H21.6667Z" fill="white"/>
<path d="M22.0834 0.850952H2.91669C1.53653 0.852306 0.418041 1.9708 0.416687 3.35095V11.5285V11.5322V16.2676V17.5176C0.418041 18.8978 1.53653 20.0163 2.91669 20.0176H8.07585L6.40919 23.351H4.16669C3.47632 23.351 2.91669 23.9106 2.91669 24.601C2.91669 25.2913 3.47632 25.851 4.16669 25.851H20.8334C21.5237 25.851 22.0834 25.2913 22.0834 24.601C22.0834 23.9106 21.5237 23.351 20.8334 23.351H18.5909L16.9242 20.0176H22.0834C23.4635 20.0163 24.582 18.8978 24.5834 17.5176V3.35095C24.582 1.9708 23.4635 0.852306 22.0834 0.850952ZM1.25002 6.71345L2.1971 7.84095C2.27627 7.93527 2.39315 7.9897 2.51627 7.9897H3.79169C3.91481 7.9897 4.03169 7.93527 4.11085 7.84095L5.05835 6.71345L5.99335 7.0172L6.09669 8.48512C6.10523 8.60788 6.16762 8.72059 6.2671 8.79304L7.29919 9.54304C7.39903 9.61512 7.52549 9.63965 7.64502 9.61012L9.07544 9.2547L9.65377 10.0501L8.87419 11.3001C8.8096 11.4049 8.79466 11.5329 8.83335 11.6497L9.22794 12.8626C9.26591 12.9796 9.35356 13.0739 9.46752 13.1201L10.8334 13.6739V14.6572L9.46669 15.211C9.35247 15.257 9.26466 15.3515 9.2271 15.4689L9.1021 15.851H6.70169C7.63544 13.896 6.80752 11.5541 4.85252 10.6204C3.70424 10.0719 2.36122 10.1145 1.25002 10.7347V6.71345ZM1.25002 11.726C2.59773 10.6745 4.54262 10.9148 5.59398 12.2625C6.40575 13.303 6.46841 14.7439 5.75002 15.851H1.25002V11.726ZM20.8334 24.1843C21.0635 24.1843 21.25 24.3708 21.25 24.601C21.25 24.8311 21.0635 25.0176 20.8334 25.0176H4.16669C3.93658 25.0176 3.75002 24.8311 3.75002 24.601C3.75002 24.3708 3.93658 24.1843 4.16669 24.1843H20.8334ZM17.6592 23.351H7.34085L9.00752 20.0176H15.9925L17.6592 23.351ZM23.75 17.5176C23.75 18.4381 23.0038 19.1843 22.0834 19.1843H2.91669C1.99622 19.1843 1.25002 18.4381 1.25002 17.5176V16.6843H5.96752H5.97127H23.75V17.5176ZM23.75 15.851H10.1063L11.4067 15.3239C11.5638 15.2601 11.6666 15.1076 11.6667 14.938V13.3926C11.6667 13.2229 11.5639 13.0702 11.4067 13.0064L9.95835 12.4205L9.68419 11.5768L10.51 10.2518C10.5996 10.1078 10.593 9.92397 10.4934 9.78679L9.58502 8.53679C9.48528 8.39944 9.31226 8.33632 9.14752 8.3772L7.63252 8.7522L6.91669 8.2322L6.8071 6.67804C6.79518 6.50861 6.68158 6.36335 6.52002 6.31095L5.05127 5.83345C4.88966 5.78199 4.71299 5.83278 4.60335 5.9622L3.60044 7.15595H2.71169L1.70835 5.9622C1.59867 5.83262 1.42174 5.78179 1.26002 5.83345L1.25002 5.8372V3.35095C1.25002 2.43048 1.99622 1.68429 2.91669 1.68429H22.0834C23.0038 1.68429 23.75 2.43048 23.75 3.35095V15.851Z" fill="white"/>
</g>
<defs>
<clipPath id="clip0">
<rect width="25" height="25" fill="white" transform="translate(0 0.850952)"/>
</clipPath>
</defs>
</svg>
