<svg width="21" height="26" viewBox="0 0 21 26" fill="none" xmlns="http://www.w3.org/2000/svg">
<path d="M17.7169 17.1839L16.2497 16.7531L13.0575 14.6681V14.1904C13.9817 13.4932 14.6164 12.4277 14.7343 11.2062C15.1978 11.1316 15.553 10.7288 15.553 10.2447V8.93094C15.553 8.92587 15.5524 8.92089 15.5522 8.91581V7.25165C15.7369 7.11942 15.854 6.90404 15.854 6.66244V5.13949L18.057 4.76425C18.4191 4.70258 18.6794 4.41503 18.705 4.04867C18.7305 3.68231 18.5126 3.36141 18.1626 3.25013L10.736 0.887927C10.5811 0.838611 10.4174 0.83866 10.2625 0.887878L2.83579 3.25013C2.48583 3.36141 2.26787 3.68231 2.2934 4.04862C2.30961 4.28138 2.42084 4.48207 2.59252 4.61351V6.60507H2.57436C2.15615 6.60507 1.81591 6.9453 1.81591 7.36351V8.35209L1.32631 11.2257C1.24169 11.7227 1.62451 12.1777 2.12988 12.1777H3.78754C4.29179 12.1777 4.67592 11.7238 4.59111 11.2257L4.10151 8.35209V7.36351C4.10151 6.9453 3.76127 6.60507 3.34306 6.60507H3.32495V4.82953L5.14594 5.13969V6.66244C5.14594 6.90302 5.26259 7.11805 5.44638 7.25048L5.44707 8.93109V10.2447C5.44707 10.7289 5.80219 11.1316 6.26572 11.2062C6.38364 12.427 7.01762 13.4921 7.94096 14.1892V14.6692L4.74946 16.7538L3.28339 17.1842C1.71459 17.6446 0.606879 19.0849 0.606879 20.7591V21.8505C0.606879 22.0528 0.770795 22.2167 0.97309 22.2167C1.17538 22.2167 1.3393 22.0528 1.3393 21.8505V20.7591C1.3393 19.4396 2.22353 18.2585 3.48969 17.8869L4.85571 17.4859L10.313 20.7287C10.4238 20.7946 10.5704 20.7981 10.6872 20.7287L16.1448 17.4857L17.5107 17.8867C18.7767 18.2584 19.6609 19.4394 19.6609 20.7589V24.2959C19.6609 24.7495 19.2918 25.1186 18.8381 25.1186H17.224V23.5401C17.224 23.3379 17.0601 23.1739 16.8578 23.1739C16.6556 23.1739 16.4916 23.3378 16.4916 23.5401V25.1186H4.50683V23.5401C4.50683 23.3379 4.34291 23.1739 4.14062 23.1739C3.93832 23.1739 3.77441 23.3378 3.77441 23.5401V25.1186H2.16196C1.70829 25.1186 1.3392 24.7495 1.3392 24.2959V23.5624C1.3392 23.3601 1.17529 23.1962 0.972992 23.1962C0.770697 23.1962 0.606781 23.3601 0.606781 23.5624V24.2958C0.606781 25.1534 1.30439 25.851 2.16191 25.851H18.838C19.6956 25.851 20.3932 25.1534 20.3932 24.2958V20.7588C20.3932 19.1241 19.3232 17.6556 17.7169 17.1839ZM3.78749 11.4453H2.12988C2.07866 11.4453 2.03959 11.3995 2.04828 11.3487L2.49116 8.74926H3.42621L3.86909 11.3486C3.87773 11.3994 3.83896 11.4453 3.78749 11.4453ZM3.36909 7.36351V8.01688H2.54824V7.36351C2.54824 7.34911 2.55991 7.33744 2.57431 7.33744H3.34296C3.35742 7.33739 3.36909 7.34911 3.36909 7.36351ZM9.19028 19.0722L9.33603 19.2962L5.59731 17.0747L7.97041 15.5246C8.07802 16.7873 8.49423 18.0024 9.19028 19.0722ZM9.18774 17.4914C10.0497 17.6139 10.9498 17.614 11.8123 17.4914C11.6456 17.9015 11.4402 18.2972 11.1958 18.6728L10.5 19.7424L9.80415 18.6728C9.55976 18.2972 9.35439 17.9015 9.18774 17.4914ZM11.8097 19.0722C12.5058 18.0024 12.922 16.7873 13.0295 15.5246L15.4026 17.0746L11.664 19.2962L11.8097 19.0722ZM13.9519 7.38802H14.8198V8.56468H14.389C14.1479 8.56468 13.9518 8.36859 13.9518 8.12753V7.38802H13.9519ZM3.05776 3.94808L10.4846 1.58578C10.4941 1.58275 10.5043 1.5827 10.514 1.58583L17.9408 3.94808C17.9561 3.95297 17.9771 3.95961 17.9745 3.99774C17.9718 4.03583 17.95 4.03949 17.9341 4.04222L15.4787 4.46044L14.5568 4.34642C14.3562 4.32157 14.1733 4.46425 14.1484 4.66493C14.1236 4.86566 14.2663 5.04847 14.4669 5.07328L15.1217 5.15428V6.65565L5.87832 6.65531V5.15424L9.66772 4.68534C10.2197 4.61713 10.7792 4.61713 11.3308 4.68534L12.765 4.86273C12.9657 4.88759 13.1486 4.74496 13.1734 4.54428C13.1983 4.34354 13.0557 4.16073 12.855 4.13588L11.4207 3.95848C10.8096 3.88285 10.1894 3.88285 9.57783 3.95848L5.5205 4.46054L3.0643 4.04222C3.04838 4.03949 3.02665 4.03583 3.02397 3.99774C3.02133 3.95961 3.04238 3.95292 3.05776 3.94808ZM6.17924 8.56468L6.17875 7.38802H7.04814V8.12757C7.04814 8.36859 6.85205 8.56473 6.61093 8.56473H6.17924V8.56468ZM6.98525 11.018C6.9664 10.7198 6.71855 10.4862 6.42104 10.4862C6.28779 10.4862 6.17939 10.3778 6.17939 10.2446V9.29711H6.61093C7.25581 9.29711 7.78051 8.77245 7.78051 8.12757V7.38802H13.2194V8.12757C13.2194 8.77245 13.7441 9.29711 14.389 9.29711H14.8206V10.2446C14.8206 10.3778 14.7122 10.4862 14.5789 10.4862C14.2814 10.4862 14.0335 10.7198 14.0147 11.0181C13.898 12.8671 12.3542 14.3156 10.4999 14.3156C8.6457 14.3156 7.1019 12.8671 6.98525 11.018ZM10.5 15.048C11.1513 15.048 11.7704 14.8991 12.3251 14.6343V14.8663C12.3251 15.4925 12.2406 16.1101 12.078 16.7058C11.0828 16.8955 9.95761 16.9032 8.92202 16.7058C8.75937 16.1101 8.6749 15.4925 8.6749 14.8663C8.6749 14.8586 8.67382 14.851 8.67334 14.8433C8.67324 14.8418 8.67338 14.8403 8.67329 14.8388V14.6335C9.22841 14.8988 9.84804 15.048 10.5 15.048Z" fill="white"/>
</svg>
