<svg width="25" height="22" viewBox="0 0 25 22" fill="none" xmlns="http://www.w3.org/2000/svg">
<path d="M23.3871 0.850952H1.6129C1.18531 0.851512 0.775384 1.02162 0.473027 1.32398C0.17067 1.62634 0.000560118 2.03626 0 2.46386V16.1735C0.000560118 16.6011 0.17067 17.0111 0.473027 17.3134C0.775384 17.6158 1.18531 17.7859 1.6129 17.7864H9.92439L9.38659 19.3993H8.06452C7.95757 19.3993 7.85501 19.4418 7.77939 19.5174C7.70377 19.5931 7.66129 19.6956 7.66129 19.8026V20.609H4.03226C3.92532 20.609 3.82275 20.6515 3.74713 20.7271C3.67151 20.8027 3.62903 20.9053 3.62903 21.0122C3.62903 21.1192 3.67151 21.2217 3.74713 21.2974C3.82275 21.373 3.92532 21.4155 4.03226 21.4155H21.7742C21.8811 21.4155 21.9837 21.373 22.0593 21.2974C22.1349 21.2217 22.1774 21.1192 22.1774 21.0122C22.1774 20.9053 22.1349 20.8027 22.0593 20.7271C21.9837 20.6515 21.8811 20.609 21.7742 20.609H17.3387V19.8026C17.3387 19.6956 17.2962 19.5931 17.2206 19.5174C17.145 19.4418 17.0424 19.3993 16.9355 19.3993H15.6134L15.0756 17.7864H23.3871C23.8147 17.7859 24.2246 17.6158 24.527 17.3134C24.8293 17.0111 24.9994 16.6011 25 16.1735V2.46386C24.9994 2.03626 24.8293 1.62634 24.527 1.32398C24.2246 1.02162 23.8147 0.851512 23.3871 0.850952ZM16.5323 20.2058V20.609H8.46774V20.2058H16.5323ZM10.2369 19.3993L10.7747 17.7864H14.2253L14.7631 19.3993H10.2369ZM24.1935 16.1735C24.1933 16.3873 24.1082 16.5923 23.957 16.7435C23.8059 16.8946 23.6009 16.9797 23.3871 16.98H1.6129C1.3991 16.9797 1.19414 16.8946 1.04297 16.7435C0.891787 16.5923 0.806732 16.3873 0.806452 16.1735V15.3671H24.1935V16.1735ZM6.8377 10.9316L6.68649 14.5606H6.21673L6.06552 10.9316H6.8377ZM6.12097 10.1251L6.39012 8.51224H6.5131L6.78226 10.1251H6.12097ZM6.45161 7.70579C6.01462 7.70579 5.64516 7.15186 5.64516 6.49611C5.64516 6.0823 6.06754 5.48099 6.4506 5.0571C6.79587 5.44017 7.25806 6.05257 7.25806 6.49611C7.25806 7.15186 6.88861 7.70579 6.45161 7.70579ZM10.8397 6.89934L10.8871 6.9946V7.30257H9.27419V6.9946L9.32157 6.89934H10.8397ZM9.7248 6.09289L10.0806 5.3817L10.4365 6.09289H9.7248ZM10.8871 8.10902V14.5102C10.8873 14.5271 10.8884 14.5439 10.8906 14.5606H9.27067C9.27286 14.5439 9.27404 14.5271 9.27419 14.5102V8.10902H10.8871ZM14.5161 6.49611H15.7258V7.30257H15.3226C15.2156 7.30257 15.1131 7.34505 15.0375 7.42067C14.9618 7.49629 14.9194 7.59885 14.9194 7.70579C14.9194 7.81273 14.9618 7.9153 15.0375 7.99091C15.1131 8.06653 15.2156 8.10902 15.3226 8.10902H15.7258V8.91547H14.5161C14.4092 8.91547 14.3066 8.95795 14.231 9.03357C14.1554 9.10919 14.1129 9.21175 14.1129 9.31869C14.1129 9.42564 14.1554 9.5282 14.231 9.60382C14.3066 9.67944 14.4092 9.72192 14.5161 9.72192H15.7258V10.5284H15.3226C15.2156 10.5284 15.1131 10.5709 15.0375 10.6465C14.9618 10.7221 14.9194 10.8247 14.9194 10.9316C14.9194 11.0385 14.9618 11.1411 15.0375 11.2167C15.1131 11.2923 15.2156 11.3348 15.3226 11.3348H15.7258V12.1413H14.5161C14.4092 12.1413 14.3066 12.1838 14.231 12.2594C14.1554 12.335 14.1129 12.4376 14.1129 12.5445C14.1129 12.6514 14.1554 12.754 14.231 12.8296C14.3066 12.9052 14.4092 12.9477 14.5161 12.9477H15.7258V14.5606H12.9032V4.88321H15.7258V5.68966H14.5161C14.4092 5.68966 14.3066 5.73214 14.231 5.80776C14.1554 5.88338 14.1129 5.98595 14.1129 6.09289C14.1129 6.19983 14.1554 6.30239 14.231 6.37801C14.3066 6.45363 14.4092 6.49611 14.5161 6.49611ZM19.3548 11.3348V14.5102C19.355 14.5271 19.3562 14.5439 19.3584 14.5606H17.7384C17.7406 14.5439 17.7418 14.5271 17.7419 14.5102V11.3348H19.3548ZM17.7419 10.5284V10.2204L18.5484 8.6075L19.3548 10.2204V10.5284H17.7419ZM24.1935 14.5606H20.1578C20.16 14.5439 20.1611 14.5271 20.1613 14.5102V10.1251C20.1612 10.0625 20.1467 10.0008 20.119 9.9447L18.9093 7.52535C18.8757 7.45839 18.8242 7.40208 18.7604 7.36273C18.6967 7.32339 18.6233 7.30255 18.5484 7.30255C18.4735 7.30255 18.4001 7.32339 18.3363 7.36273C18.2726 7.40208 18.2211 7.45839 18.1875 7.52535L16.9778 9.9447C16.95 10.0008 16.9355 10.0625 16.9355 10.1251V14.5102C16.9356 14.5271 16.9368 14.5439 16.939 14.5606H16.5323V4.47998C16.5323 4.37304 16.4898 4.27048 16.4142 4.19486C16.3385 4.11924 16.236 4.07676 16.129 4.07676H12.5C12.3931 4.07676 12.2905 4.11924 12.2149 4.19486C12.1393 4.27048 12.0968 4.37304 12.0968 4.47998V14.5606H11.69C11.6922 14.5439 11.6934 14.5271 11.6935 14.5102V6.89934C11.6935 6.83674 11.679 6.77499 11.6512 6.7189L10.4415 4.29954C10.408 4.23258 10.3564 4.17628 10.2927 4.13693C10.229 4.09758 10.1555 4.07674 10.0806 4.07674C10.0057 4.07674 9.93232 4.09758 9.86858 4.13693C9.80485 4.17628 9.75332 4.23258 9.71976 4.29954L8.51008 6.7189C8.48229 6.77499 8.4678 6.83674 8.46774 6.89934V14.5102C8.4679 14.5271 8.46908 14.5439 8.47127 14.5606H7.49345L7.66079 10.545C7.66129 10.5359 7.66079 10.5269 7.66079 10.5173V10.5052C7.65985 10.491 7.65817 10.4769 7.65575 10.4628V10.4618L7.28276 8.22343C7.75101 7.87011 8.06452 7.22797 8.06452 6.49611C8.06452 5.45982 6.86341 4.31214 6.72631 4.18462C6.6516 4.11537 6.55348 4.07689 6.45161 4.07689C6.34974 4.07689 6.25163 4.11537 6.17692 4.18462C6.03982 4.31214 4.83871 5.45982 4.83871 6.49611C4.83871 7.22797 5.15222 7.87011 5.62046 8.22343L5.24748 10.4618V10.4628C5.24506 10.4769 5.24337 10.491 5.24244 10.5052V10.5173C5.24244 10.5269 5.24194 10.5359 5.24244 10.545L5.40978 14.5606H0.806452V2.46386C0.806732 2.25006 0.891787 2.0451 1.04297 1.89392C1.19414 1.74274 1.3991 1.65768 1.6129 1.6574H23.3871C23.6009 1.65768 23.8059 1.74274 23.957 1.89392C24.1082 2.0451 24.1933 2.25006 24.1935 2.46386V14.5606Z" fill="white"/>
<path d="M4.4355 15.7703H2.01614C1.9092 15.7703 1.80664 15.8127 1.73102 15.8884C1.6554 15.964 1.61292 16.0665 1.61292 16.1735C1.61292 16.2804 1.6554 16.383 1.73102 16.4586C1.80664 16.5342 1.9092 16.5767 2.01614 16.5767H4.4355C4.54244 16.5767 4.645 16.5342 4.72062 16.4586C4.79624 16.383 4.83872 16.2804 4.83872 16.1735C4.83872 16.0665 4.79624 15.964 4.72062 15.8884C4.645 15.8127 4.54244 15.7703 4.4355 15.7703Z" fill="white"/>
<path d="M6.04839 15.7703H5.64517C5.53823 15.7703 5.43567 15.8127 5.36005 15.8884C5.28443 15.964 5.24194 16.0665 5.24194 16.1735C5.24194 16.2804 5.28443 16.383 5.36005 16.4586C5.43567 16.5342 5.53823 16.5767 5.64517 16.5767H6.04839C6.15534 16.5767 6.2579 16.5342 6.33352 16.4586C6.40914 16.383 6.45162 16.2804 6.45162 16.1735C6.45162 16.0665 6.40914 15.964 6.33352 15.8884C6.2579 15.8127 6.15534 15.7703 6.04839 15.7703Z" fill="white"/>
<path d="M10.0807 8.51221C9.97371 8.51221 9.87115 8.55469 9.79553 8.63031C9.71991 8.70593 9.67743 8.80849 9.67743 8.91543V13.3509C9.67743 13.4579 9.71991 13.5604 9.79553 13.636C9.87115 13.7117 9.97371 13.7541 10.0807 13.7541C10.1876 13.7541 10.2902 13.7117 10.3658 13.636C10.4414 13.5604 10.4839 13.4579 10.4839 13.3509V8.91543C10.4839 8.80849 10.4414 8.70593 10.3658 8.63031C10.2902 8.55469 10.1876 8.51221 10.0807 8.51221Z" fill="white"/>
<path d="M18.5484 11.738C18.4414 11.738 18.3389 11.7805 18.2632 11.8561C18.1876 11.9318 18.1451 12.0343 18.1451 12.1413V13.3509C18.1451 13.4579 18.1876 13.5604 18.2632 13.6361C18.3389 13.7117 18.4414 13.7542 18.5484 13.7542C18.6553 13.7542 18.7579 13.7117 18.8335 13.6361C18.9091 13.5604 18.9516 13.4579 18.9516 13.3509V12.1413C18.9516 12.0343 18.9091 11.9318 18.8335 11.8561C18.7579 11.7805 18.6553 11.738 18.5484 11.738Z" fill="white"/>
<path d="M2.01614 3.27032H5.24195C5.34889 3.27032 5.45145 3.22784 5.52707 3.15222C5.60269 3.0766 5.64517 2.97404 5.64517 2.86709C5.64517 2.76015 5.60269 2.65759 5.52707 2.58197C5.45145 2.50635 5.34889 2.46387 5.24195 2.46387H2.01614C1.9092 2.46387 1.80664 2.50635 1.73102 2.58197C1.6554 2.65759 1.61292 2.76015 1.61292 2.86709C1.61292 2.97404 1.6554 3.0766 1.73102 3.15222C1.80664 3.22784 1.9092 3.27032 2.01614 3.27032Z" fill="white"/>
<path d="M2.01614 4.48004H2.82259C2.92953 4.48004 3.0321 4.43755 3.10772 4.36193C3.18334 4.28631 3.22582 4.18375 3.22582 4.07681C3.22582 3.96987 3.18334 3.86731 3.10772 3.79169C3.0321 3.71607 2.92953 3.67358 2.82259 3.67358H2.01614C1.9092 3.67358 1.80664 3.71607 1.73102 3.79169C1.6554 3.86731 1.61292 3.96987 1.61292 4.07681C1.61292 4.18375 1.6554 4.28631 1.73102 4.36193C1.80664 4.43755 1.9092 4.48004 2.01614 4.48004Z" fill="white"/>
<path d="M21.3709 13.7542H22.9838C23.0908 13.7542 23.1933 13.7117 23.269 13.6361C23.3446 13.5605 23.3871 13.4579 23.3871 13.351C23.3871 13.244 23.3446 13.1415 23.269 13.0659C23.1933 12.9902 23.0908 12.9478 22.9838 12.9478H21.3709C21.264 12.9478 21.1614 12.9902 21.0858 13.0659C21.0102 13.1415 20.9677 13.244 20.9677 13.351C20.9677 13.4579 21.0102 13.5605 21.0858 13.6361C21.1614 13.7117 21.264 13.7542 21.3709 13.7542Z" fill="white"/>
<path d="M22.5807 12.5445H22.9839C23.0908 12.5445 23.1934 12.502 23.269 12.4264C23.3446 12.3508 23.3871 12.2482 23.3871 12.1413C23.3871 12.0343 23.3446 11.9318 23.269 11.8561C23.1934 11.7805 23.0908 11.738 22.9839 11.738H22.5807C22.4737 11.738 22.3712 11.7805 22.2955 11.8561C22.2199 11.9318 22.1774 12.0343 22.1774 12.1413C22.1774 12.2482 22.2199 12.3508 22.2955 12.4264C22.3712 12.502 22.4737 12.5445 22.5807 12.5445Z" fill="white"/>
</svg>
