<svg width="25" height="25" viewBox="0 0 25 25" fill="none" xmlns="http://www.w3.org/2000/svg">
<path d="M0 0.850952V21.3714H8.02402V22.8386H6.55742V24.3035H18.4425V22.8386H16.9759V21.3714H25V0.850952H0ZM15.511 22.8386H9.48897V21.3714H15.511V22.8386H15.511ZM23.5351 19.9065H1.46489V16.9732H23.5351V19.9065H23.5351ZM23.5351 15.5083H1.46489V2.31589H23.5351V15.5083H23.5351Z" fill="white"/>
<path d="M9.95816 6.26435L8.92232 5.22852L5.23877 8.91206L8.92232 12.5956L9.95816 11.5597L7.31045 8.91206L9.95816 6.26435Z" fill="white"/>
<path d="M16.0777 5.22852L15.0419 6.26435L17.6896 8.91206L15.0419 11.5597L16.0777 12.5956L19.7612 8.91206L16.0777 5.22852Z" fill="white"/>
<path d="M12.6319 4.49495L10.9313 13.0439L12.3681 13.3298L14.0687 4.78076L12.6319 4.49495Z" fill="white"/>
</svg>
